<?xml version="1.0" standalone="no"?>
<!DOCTYPE svg PUBLIC "-//W3C//DTD SVG 20010904//EN"
 "http://www.w3.org/TR/2001/REC-SVG-20010904/DTD/svg10.dtd">
<svg version="1.0" xmlns="http://www.w3.org/2000/svg"
 width="512.000000pt" height="512.000000pt" viewBox="0 0 512.000000 512.000000"
 preserveAspectRatio="xMidYMid meet">

<g transform="translate(0.000000,512.000000) scale(0.100000,-0.100000)"
fill="#000000" stroke="none">
<path d="M1317 4624 c-423 -76 -748 -404 -822 -829 -23 -131 -23 -2339 0
-2470 38 -217 127 -389 284 -545 157 -156 331 -247 550 -285 125 -22 2337 -22
2462 0 434 76 758 400 834 834 22 125 22 2337 0 2462 -75 433 -400 759 -830
834 -125 22 -2357 21 -2478 -1z m1833 -2064 l0 -1761 -892 3 -893 3 -80 27
c-111 38 -196 91 -279 173 -82 81 -135 167 -174 280 l-27 80 0 1195 0 1195 27
80 c84 245 273 415 523 470 47 11 247 14 928 14 l867 1 0 -1760z m685 1727
c111 -36 197 -90 280 -172 81 -82 134 -168 173 -280 l27 -80 0 -1195 0 -1195
-27 -80 c-39 -112 -92 -198 -173 -280 -83 -82 -169 -136 -280 -172 -66 -21
-105 -27 -222 -31 l-143 -5 0 1763 0 1763 143 -5 c117 -4 156 -10 222 -31z"/>
</g>
</svg>
